<?xml version="1.0" encoding="utf-8"?>
<!-- Generator: Adobe Illustrator 22.0.1, SVG Export Plug-In . SVG Version: 6.00 Build 0)  -->
<svg version="1.1" id="Layer_1" xmlns="http://www.w3.org/2000/svg" xmlns:xlink="http://www.w3.org/1999/xlink" x="0px" y="0px"
	 viewBox="0 0 67 67" style="enable-background:new 0 0 67 67;" xml:space="preserve">
<style type="text/css">
	.st0{fill:#FFFFFF;}
	.st1{fill:#E23861;}

</style>
<g id="XMLID_1_">
	<g>
		<path class="st0" d="M41.6,28.4L41,34h-4.5v16.3h-6.7V34h-3.4v-5.6h3.4V25c0-4.6,1.9-7.3,7.3-7.3h4.5v5.6h-2.8
			c-2.1,0-2.2,0.8-2.2,2.3l0,2.8H41.6z"/>
		<path class="st1" d="M34,4c16.6,0,30,13.4,30,30S50.6,64,34,64S4,50.6,4,34S17.4,4,34,4z M41,34l0.6-5.6h-5.1l0-2.8
			c0-1.5,0.1-2.3,2.2-2.3h2.8v-5.6h-4.5c-5.4,0-7.3,2.7-7.3,7.3v3.4h-3.4V34h3.4v16.3h6.7V34H41z"/>
	</g>
	<g>
	</g>
</g>
<g id="F">
</g>
</svg>
