<svg width="100" height="100" xmlns="http://www.w3.org/2000/svg">

 <g>
  <title>background</title>
  <rect fill="none" id="canvas_background" height="402" width="582" y="-1" x="-1"/>
 </g>
 <g>
  <title>Layer 1</title>
  <circle id="svg_2" r="45" fill="none" cy="50.001" cx="50"/>
  <path id="svg_4" fill-rule="evenodd" fill="#FFFFFF" d="m45.724,59.257c-1.623,-0.377 -3.136,-0.922 -4.574,-1.662c-0.515,-0.266 -1.022,-0.551 -1.514,-0.857c-1.451,-0.906 -1.902,-2.775 -1.03,-4.213c0.897,-1.477 2.756,-1.957 4.24,-1.057c1.46,0.883 3.007,1.525 4.688,1.828c3.308,0.594 6.416,0.047 9.312,-1.656c0.591,-0.348 1.188,-0.621 1.893,-0.617c1.367,0.008 2.564,0.883 2.961,2.184c0.399,1.311 -0.098,2.73 -1.259,3.477c-1.809,1.164 -3.768,1.984 -5.854,2.498c-0.09,0.021 -0.178,0.047 -0.304,0.08c0.085,0.092 0.151,0.164 0.221,0.234c1.854,1.854 3.709,3.705 5.561,5.562c1.083,1.086 1.311,2.576 0.592,3.818c-1.035,1.789 -3.415,2.086 -4.906,0.604c-1.848,-1.838 -3.686,-3.684 -5.527,-5.525c-0.066,-0.066 -0.128,-0.137 -0.275,-0.297c-0.061,0.109 -0.094,0.215 -0.162,0.283c-1.845,1.852 -3.69,3.701 -5.543,5.545c-1.271,1.268 -3.212,1.26 -4.442,-0.004c-1.125,-1.156 -1.157,-2.992 -0.069,-4.205c0.147,-0.166 0.307,-0.322 0.463,-0.479c1.77,-1.771 3.539,-3.539 5.309,-5.311c0.061,-0.062 0.124,-0.131 0.219,-0.23z" clip-rule="evenodd"/>
  <path id="svg_5" fill-rule="evenodd" fill="#FFFFFF" d="m50.005,29.567c5.805,0 10.541,4.738 10.54,10.543c-0.001,5.812 -4.692,10.543 -10.536,10.545c-5.877,0.006 -10.544,-4.732 -10.553,-10.525c-0.01,-5.813 4.693,-10.547 10.549,-10.563zm4.357,10.553c0.002,-2.402 -1.941,-4.361 -4.331,-4.367c-2.422,-0.006 -4.395,1.936 -4.399,4.328c-0.004,2.396 1.939,4.391 4.284,4.393c2.485,0.002 4.444,-1.916 4.446,-4.354z" clip-rule="evenodd"/>
 </g>
</svg>